# xmcd
#
# Track frame offsets:
#	150
#	10090
#	20906
#	32372
#	42273
#	53731
#	62679
#	72352
#	85176
#	95636
#	105751
#	116189
#	127316
#	141060
#	152513
#	161893
#	171999
#	181228
#	189648
#	197937
#	208252
#	218910
#	227625
#	238993
#	249827
#
# Disc length: 3494 seconds
#
# Revision: 1
# Processed by: cddbd v1.5.2PL0 Copyright (c) Steve Scherf et al.
# Submitted via: audiograbber 1.83.01
#
DISCID=680da419
DTITLE=Conway Twitty - The Best Of  [CD1)
DYEAR=1900
DGENRE=Oldies
TTITLE0=It's Only Make Believe
TTITLE1=Mona Lisa
TTITLE2=Is A Blue Bird Blue
TTITLE3=Don't You Know
TTITLE4=Blueberry Hill
TTITLE5=Handy Man
TTITLE6=I Get So Lonely
TTITLE7=Whole Lotta Shakin' Goin' On
TTITLE8=Hey Miss Ruby
TTITLE9=I'll Try
TTITLE10=Turn Around
TTITLE11=I Need Your Lovin'
TTITLE12=Shake, Rattle And Roll
TTITLE13=What A Dream
TTITLE14=My Heart Cries
TTITLE15=Reelin' And A Rockin'
TTITLE16=The Next Kiss
TTITLE17=I Can Hear My Heart Break
TTITLE18=Blue Suede Shoes
TTITLE19=Double Talk Baby
TTITLE20=The Hurt In My Heart
TTITLE21=She's Mine
TTITLE22=Platinum High School
TTITLE23=Walk On By
TTITLE24=Man Alone
EXTD=
EXTT0=
EXTT1=
EXTT2=
EXTT3=
EXTT4=
EXTT5=
EXTT6=
EXTT7=
EXTT8=
EXTT9=
EXTT10=
EXTT11=
EXTT12=
EXTT13=
EXTT14=
EXTT15=
EXTT16=
EXTT17=
EXTT18=
EXTT19=
EXTT20=
EXTT21=
EXTT22=
EXTT23=
EXTT24=
PLAYORDER=
